<svg version="1.1" id="Layer_1" xmlns="http://www.w3.org/2000/svg" xmlns:xlink="http://www.w3.org/1999/xlink" x="0px" y="0px"
	 width="100%" viewBox="0 0 317 52" enable-background="new 0 0 317 52" xml:space="preserve">
<path fill="#090909" opacity="1.000000" stroke="none" 
	d="
M249.000000,53.000000 
	C225.312439,53.000000 201.624878,53.000000 177.556793,52.630959 
	C177.508606,51.909908 177.795502,51.313469 178.180023,51.241955 
	C185.978409,49.791599 193.799179,48.458817 201.583694,46.939610 
	C202.803528,46.701553 203.868774,45.671379 205.337753,45.005806 
	C206.113159,45.003925 206.556305,45.003716 207.262787,45.268623 
	C210.760147,45.355728 214.077774,45.577995 217.212204,44.923241 
	C225.963867,43.095093 234.639664,40.903774 243.649902,38.864853 
	C244.560516,38.886173 245.166611,38.898453 246.167908,38.927246 
	C248.609955,38.632252 250.656799,38.320744 252.921448,38.320198 
	C253.757080,38.264053 254.670944,38.043411 254.938370,37.502918 
	C255.809814,35.741631 256.445190,33.863525 257.490112,32.017548 
	C258.233917,31.990082 258.658997,31.975437 259.396515,32.104530 
	C262.828491,36.944069 266.715210,40.431290 272.806854,38.664696 
	C278.098755,37.130039 279.748810,32.938744 279.647217,27.449451 
	C280.786255,26.769714 281.699951,26.404802 282.732361,26.396351 
	C285.457275,28.172617 288.106354,29.520485 290.652679,31.040560 
	C292.065308,31.883860 293.306152,33.014854 294.624451,34.016174 
	C293.061371,34.948387 291.594788,36.259491 289.903961,36.690228 
	C288.603973,37.021404 287.022736,36.238873 285.564575,35.962029 
	C284.537811,35.767082 283.507690,35.589626 282.479065,35.404362 
	C285.989441,39.578247 290.239441,39.998722 294.423218,37.877495 
	C295.785767,37.186642 296.981537,34.751808 296.939606,33.148960 
	C296.905487,31.842794 295.124817,30.222324 293.729309,29.409784 
	C292.241577,28.543550 290.178375,28.712814 288.587830,27.961351 
	C287.266327,27.336996 286.265930,26.032923 285.123291,25.029940 
	C286.409668,24.374201 287.642517,23.353291 288.995972,23.154764 
	C290.705017,22.904083 292.541168,23.552507 294.262512,23.336195 
	C294.906036,23.255331 295.380981,21.832870 296.341461,21.025530 
	C299.891174,19.855206 303.035919,18.691299 306.172272,17.505249 
	C310.118439,16.012970 314.057739,14.502582 318.000000,13.000002 
	C318.000000,19.354399 318.000000,25.708796 317.623627,32.539398 
	C316.755402,33.091290 316.239044,33.095070 315.775269,33.253124 
	C302.181763,37.885609 288.693451,42.860249 274.967560,47.058426 
	C266.498260,49.648834 257.668121,51.059616 249.000000,53.000000 
z"/>
<path fill="#080808" opacity="1.000000" stroke="none" 
	d="
M238.000000,0.999997 
	C256.687561,1.000000 275.375122,1.000000 294.477081,1.350386 
	C294.321411,2.259595 293.850067,3.082223 293.166595,3.338001 
	C281.299408,7.779003 269.406189,12.150388 257.503418,16.542585 
	C256.114136,14.637537 255.196167,13.378797 253.728226,11.365877 
	C252.887741,16.376171 250.785461,18.990719 246.022949,17.592295 
	C245.763031,15.613125 245.575119,14.028948 245.387207,12.444771 
	C244.801697,12.444648 244.216171,12.444526 243.630646,12.444403 
	C243.342682,15.591438 243.054718,18.738474 242.726746,22.322702 
	C237.706085,18.938639 233.172806,19.375965 228.467072,22.951466 
	C226.044327,22.960964 224.048889,22.975668 221.972778,22.621191 
	C221.282700,21.561386 220.673294,20.870760 220.063873,20.180136 
	C219.675537,21.446676 219.287201,22.713217 218.512817,24.057178 
	C214.560120,24.732922 210.993423,25.331240 207.344604,25.504667 
	C207.045959,23.384748 206.829453,21.689720 206.612961,19.994692 
	C206.134659,20.019775 205.656372,20.044859 205.178070,20.069942 
	C204.946960,22.357513 204.715851,24.645084 204.072098,26.929768 
	C200.173645,27.275553 196.687866,27.624224 193.128357,27.531982 
	C193.054657,25.664867 193.054657,24.238665 193.054657,22.820946 
	C195.419601,22.383907 197.267487,22.042419 199.804642,21.573557 
	C197.677048,18.950586 192.088547,22.083311 193.894638,16.260965 
	C199.100403,13.964624 203.982010,11.547798 209.138992,10.139394 
	C217.051895,7.978339 225.193283,6.663868 233.146606,4.633332 
	C234.955688,4.171462 236.392075,2.249768 238.000000,0.999997 
z"/>
<path fill="#242424" opacity="1.000000" stroke="none" 
	d="
M143.000000,1.000001 
	C153.687561,1.000000 164.375122,1.000000 175.420013,1.256916 
	C175.518234,2.009456 175.259125,2.505079 174.608307,3.054993 
	C167.242294,4.548923 160.287506,6.092847 153.288757,7.401803 
	C144.545425,9.037045 135.765945,10.478935 126.785568,11.756393 
	C125.379189,12.334694 124.189316,13.160904 122.545059,13.990207 
	C115.743233,14.660965 109.395805,15.328630 102.763992,15.797377 
	C100.664215,16.065670 98.848816,16.532883 96.623352,17.001463 
	C93.536011,17.334749 90.858727,17.666668 88.102928,17.625946 
	C86.434036,16.514759 84.843674,15.776215 84.271873,15.510680 
	C82.290016,17.647324 81.185692,18.837891 79.737350,20.115576 
	C78.262604,20.468412 77.131882,20.734129 75.815186,20.750336 
	C74.732117,20.667128 73.835030,20.833429 72.588425,21.004002 
	C71.773201,21.025665 71.307495,21.043060 70.446899,21.032146 
	C64.957054,18.658319 60.821507,20.352198 56.778564,24.049278 
	C54.660713,24.353882 52.929691,24.673809 51.099136,24.640579 
	C49.525845,20.546589 46.399693,19.630362 42.927979,20.134027 
	C40.754372,20.449368 38.711094,21.663055 36.609337,22.473656 
	C36.789875,22.864418 36.970409,23.255182 37.150948,23.645945 
	C46.832092,21.532364 48.336906,22.086672 48.433949,27.364117 
	C44.550148,28.252977 40.759464,29.120525 36.548447,29.984600 
	C32.833759,30.314680 29.539400,30.648233 26.173075,30.548386 
	C26.141777,26.889374 26.182446,23.663767 26.682648,20.341055 
	C48.138504,16.763613 69.109978,13.123281 90.139755,9.858438 
	C104.477165,7.632576 118.910843,6.032153 133.267410,3.920487 
	C136.583054,3.432798 139.759506,1.998628 143.000000,1.000001 
z"/>
<path fill="#2D2D2D" opacity="1.000000" stroke="none" 
	d="
M127.002068,12.004305 
	C135.765945,10.478935 144.545425,9.037045 153.288757,7.401803 
	C160.287506,6.092847 167.242294,4.548923 174.958466,3.047334 
	C176.466888,2.323590 177.233444,1.661794 178.000000,0.999999 
	C188.687561,1.000000 199.375122,1.000000 210.448395,1.360403 
	C208.907013,2.478292 207.039581,3.506314 205.042572,3.946724 
	C196.099808,5.918922 187.091873,7.599216 178.161804,9.624432 
	C169.438370,11.602786 160.746658,13.747377 152.123840,16.120058 
	C150.446228,16.581678 149.149338,18.427000 147.278366,19.677124 
	C142.593353,19.815235 138.306793,19.910299 133.587875,20.008644 
	C131.047577,20.440975 128.939636,20.870026 126.471382,21.199236 
	C121.644531,18.779276 117.394951,18.855921 113.286758,22.036642 
	C112.486664,22.656109 111.271797,22.739859 109.878250,23.064331 
	C109.261581,23.060001 109.014893,23.062042 108.423889,22.897640 
	C106.603058,21.468794 105.126534,20.206392 103.048378,18.429615 
	C103.048378,18.297430 103.048378,17.146864 103.048378,15.996296 
	C109.395805,15.328630 115.743233,14.660965 122.875153,13.959195 
	C124.773781,13.284830 125.887924,12.644568 127.002068,12.004305 
z"/>
<path fill="#070707" opacity="1.000000" stroke="none" 
	d="
M142.531342,1.000001 
	C139.759506,1.998628 136.583054,3.432798 133.267410,3.920487 
	C118.910843,6.032153 104.477165,7.632576 90.139755,9.858438 
	C69.109978,13.123281 48.138504,16.763613 26.617348,19.837263 
	C26.926716,18.393932 27.571539,16.835648 28.641119,16.447342 
	C30.112137,15.913296 31.913157,16.349182 33.553764,16.182394 
	C34.017097,16.135290 34.413982,15.434558 34.841343,15.033609 
	C34.229576,14.623804 33.617809,14.213999 33.101166,13.457662 
	C39.473583,11.406486 45.697384,9.460249 52.041115,8.055662 
	C60.840179,6.107430 69.735115,4.594296 78.566589,2.785427 
	C79.142143,2.667542 79.526634,1.616807 80.000000,0.999999 
	C100.687561,1.000000 121.375122,1.000000 142.531342,1.000001 
z"/>
<path fill="#212121" opacity="1.000000" stroke="none" 
	d="
M64.000000,53.000000 
	C44.312439,53.000000 24.624876,53.000000 4.738698,52.728786 
	C22.299438,49.299469 40.058792,46.141365 58.038727,43.284542 
	C66.428421,47.891785 72.325409,46.620796 75.923561,39.912506 
	C79.673950,39.603275 82.943871,39.263710 86.629646,38.922928 
	C88.983154,38.933392 90.920799,38.945068 93.275795,38.939178 
	C95.610634,38.571938 97.528114,38.222260 99.693604,37.903313 
	C100.314674,38.235344 100.687759,38.536648 101.033081,39.229786 
	C100.179733,40.410912 99.441704,41.327412 98.512924,41.966812 
	C95.041405,44.356709 91.507408,46.655853 87.597092,48.991371 
	C86.131271,48.994785 85.065201,48.995857 83.792068,48.756321 
	C82.721893,49.005318 81.858795,49.494930 80.557228,49.988342 
	C75.745842,50.994762 71.372925,51.997379 67.000000,53.000000 
	C66.555557,53.000000 66.111107,53.000000 65.240479,52.845642 
	C64.542862,52.794189 64.271431,52.897099 64.000000,53.000000 
z"/>
<path fill="#0D0D0D" opacity="1.000000" stroke="none" 
	d="
M57.818150,42.983261 
	C40.058792,46.141365 22.299438,49.299469 4.270041,52.728786 
	C3.046616,53.000000 2.093232,53.000000 1.000000,53.000000 
	C1.000000,50.663956 1.000000,48.326714 1.450177,45.497223 
	C7.181466,44.006058 12.476229,43.073559 17.740240,41.991451 
	C24.354568,40.631756 30.943720,39.149578 37.892937,37.856464 
	C42.321312,37.992676 46.400486,37.992676 50.833656,37.992676 
	C50.902317,37.221355 51.044418,35.624954 51.531563,34.007721 
	C53.256557,33.306610 54.636513,32.626328 56.344414,32.091690 
	C59.665768,38.920940 66.673096,39.618690 72.711174,35.916546 
	C73.018272,42.337799 70.017746,44.579800 63.362614,43.148506 
	C61.584839,42.766171 59.670040,43.020969 57.818150,42.983261 
z"/>
<path fill="#0F0F0F" opacity="1.000000" stroke="none" 
	d="
M237.532059,0.999997 
	C236.392075,2.249768 234.955688,4.171462 233.146606,4.633332 
	C225.193283,6.663868 217.051895,7.978339 209.138992,10.139394 
	C203.982010,11.547798 199.100403,13.964624 193.526489,16.097248 
	C191.283844,17.937340 189.610138,19.609888 187.732407,21.486328 
	C192.451004,22.454657 190.866196,25.989166 190.337860,28.971556 
	C188.187897,29.026394 186.467072,29.076778 184.448959,28.955343 
	C180.545471,27.263931 176.836273,25.940495 173.383881,24.127907 
	C172.008881,23.405996 170.301773,21.544529 170.381104,20.306633 
	C170.466080,18.980604 172.289612,17.051842 173.690231,16.691467 
	C175.796799,16.149450 178.201309,16.678606 180.467636,16.881201 
	C181.583740,16.980974 182.674026,17.369682 183.776001,17.627645 
	C183.960632,17.169910 184.145264,16.712175 184.329895,16.254440 
	C182.888412,15.466809 181.446930,14.679178 180.094391,13.535323 
	C180.679688,12.779387 181.121109,12.146719 181.680603,12.014835 
	C190.349838,9.971279 199.092377,8.209218 207.690689,5.906765 
	C211.927933,4.772121 215.905136,2.666340 220.000000,1.000001 
	C225.688034,1.000000 231.376083,1.000000 237.532059,0.999997 
z"/>
<path fill="#2E2E2E" opacity="1.000000" stroke="none" 
	d="
M259.084045,31.960794 
	C258.658997,31.975437 258.233917,31.990082 257.317780,31.657633 
	C256.259033,27.869667 255.691360,24.428795 255.547302,20.994865 
	C261.775635,19.348055 267.710999,18.047840 273.356049,15.962029 
	C283.102509,12.360783 292.697083,8.339211 302.279968,4.314423 
	C303.728485,3.706047 304.770142,2.128989 306.000000,1.000002 
	C309.166656,1.000000 312.384186,1.351247 315.485870,0.902390 
	C318.663330,0.442570 317.951935,2.345620 317.635315,4.544777 
	C303.702209,10.778098 290.133789,16.466644 276.228943,22.036205 
	C271.737885,19.398634 267.185883,18.517096 263.736145,22.300270 
	C261.428864,24.830544 260.583557,28.693954 259.084045,31.960794 
z"/>
<path fill="#1B1B1B" opacity="1.000000" stroke="none" 
	d="
M249.468658,53.000000 
	C257.668121,51.059616 266.498260,49.648834 274.967560,47.058426 
	C288.693451,42.860249 302.181763,37.885609 315.775269,33.253124 
	C316.239044,33.095070 316.755402,33.091290 317.623627,33.007805 
	C318.000000,35.041668 318.000000,37.083332 317.608246,39.561401 
	C307.551758,43.655041 297.877869,47.288574 288.245026,51.028011 
	C287.662628,51.254101 287.407440,52.323166 287.000000,53.000000 
	C285.933319,53.000000 284.866669,53.000000 283.306213,52.848186 
	C282.541595,52.797581 282.270813,52.898788 282.000000,53.000000 
	C271.312439,53.000000 260.624878,53.000000 249.468658,53.000000 
z"/>
<path fill="#1E1E1E" opacity="1.000000" stroke="none" 
	d="
M305.541931,1.000002 
	C304.770142,2.128989 303.728485,3.706047 302.279968,4.314423 
	C292.697083,8.339211 283.102509,12.360783 273.356049,15.962029 
	C267.710999,18.047840 261.775635,19.348055 255.345245,20.687634 
	C254.035370,21.568481 253.351166,22.763506 252.291931,23.955944 
	C249.984665,24.295841 248.052429,24.638327 246.048706,24.548149 
	C246.016464,22.072754 246.055710,20.030022 246.094971,17.987288 
	C250.785461,18.990719 252.887741,16.376171 253.728226,11.365877 
	C255.196167,13.378797 256.114136,14.637537 257.503418,16.542585 
	C269.406189,12.150388 281.299408,7.779003 293.166595,3.338001 
	C293.850067,3.082223 294.321411,2.259595 294.945740,1.350386 
	C298.361298,1.000000 301.722565,1.000000 305.541931,1.000002 
z"/>
<path fill="#2E2E2E" opacity="1.000000" stroke="none" 
	d="
M83.999138,48.996933 
	C85.065201,48.995857 86.131271,48.994785 88.025421,48.994713 
	C99.713768,47.964668 110.581520,47.004646 121.430046,45.862118 
	C124.983116,45.487915 128.486252,44.639557 132.459198,44.006245 
	C135.738449,44.004448 138.570724,44.004448 141.403015,44.004448 
	C141.441605,44.579021 141.480194,45.153599 141.518799,45.728172 
	C139.902145,46.154934 138.215393,46.413471 136.686356,47.050537 
	C134.722595,47.868736 132.885498,48.990974 130.536957,49.987354 
	C126.732529,50.004696 123.384964,50.016914 119.611404,50.021008 
	C115.456947,51.008591 111.728470,52.004295 108.000000,53.000000 
	C94.645775,53.000000 81.291542,53.000000 67.468658,53.000000 
	C71.372925,51.997379 75.745842,50.994762 80.893318,49.989632 
	C82.444962,49.657055 83.222054,49.326996 83.999138,48.996933 
z"/>
<path fill="#2D2D2D" opacity="1.000000" stroke="none" 
	d="
M17.000000,1.000000 
	C27.020895,1.000000 37.041790,1.000000 47.441868,1.372651 
	C46.830574,2.166987 45.876888,2.758773 44.843544,2.982279 
	C38.901867,4.267430 32.883675,5.240105 27.000751,6.745876 
	C18.285866,8.976507 9.662391,11.564275 1.000000,14.000000 
	C1.000000,11.958333 1.000000,9.916667 1.392459,7.427828 
	C4.745235,6.187363 7.788750,5.613183 10.639305,4.530818 
	C12.882949,3.678901 14.888623,2.200260 17.000000,1.000000 
z"/>
<path fill="#1E1E1E" opacity="1.000000" stroke="none" 
	d="
M1.000000,14.399996 
	C9.662391,11.564275 18.285866,8.976507 27.000751,6.745876 
	C32.883675,5.240105 38.901867,4.267430 44.843544,2.982279 
	C45.876888,2.758773 46.830574,2.166987 47.910526,1.372651 
	C52.356899,1.000000 56.713799,1.000000 61.446518,1.368995 
	C53.734417,3.823709 45.586327,5.705474 37.579819,8.067212 
	C32.286682,9.628569 27.196810,11.878998 21.581936,13.895344 
	C18.945427,14.319099 16.742916,14.668435 14.155467,15.025578 
	C9.513686,16.022257 5.256844,17.011129 1.000000,18.000000 
	C1.000000,16.933331 1.000000,15.866661 1.000000,14.399996 
z"/>
<path fill="#161616" opacity="1.000000" stroke="none" 
	d="
M219.550018,1.000001 
	C215.905136,2.666340 211.927933,4.772121 207.690689,5.906765 
	C199.092377,8.209218 190.349838,9.971279 181.680603,12.014835 
	C181.121109,12.146719 180.679688,12.779387 179.652496,13.573364 
	C175.155991,14.104369 170.867264,13.051716 167.522018,17.004181 
	C161.425430,18.160341 155.745117,19.317518 149.816711,20.417252 
	C148.938004,20.117895 148.307419,19.875984 147.676819,19.634075 
	C149.149338,18.427000 150.446228,16.581678 152.123840,16.120058 
	C160.746658,13.747377 169.438370,11.602786 178.161804,9.624432 
	C187.091873,7.599216 196.099808,5.918922 205.042572,3.946724 
	C207.039581,3.506314 208.907013,2.478292 210.917053,1.360403 
	C213.700012,1.000000 216.400024,1.000000 219.550018,1.000001 
z"/>
<path fill="#1F1F1F" opacity="1.000000" stroke="none" 
	d="
M1.000000,36.000000 
	C1.000000,32.969406 1.000000,29.938814 1.406040,26.443033 
	C8.882814,24.653088 15.953548,23.328331 23.143143,22.444736 
	C23.182043,25.924631 23.102083,28.963366 22.611217,32.002182 
	C15.133542,33.334846 8.066772,34.667423 1.000000,36.000000 
z"/>
<path fill="#2D2D2D" opacity="1.000000" stroke="none" 
	d="
M287.468384,53.000000 
	C287.407440,52.323166 287.662628,51.254101 288.245026,51.028011 
	C297.877869,47.288574 307.551758,43.655041 317.608246,39.998901 
	C318.000000,42.370556 318.000000,44.741116 317.604065,47.554047 
	C313.805420,49.664288 310.402710,51.332146 307.000000,53.000004 
	C300.645599,53.000000 294.291199,53.000000 287.468384,53.000000 
z"/>
<path fill="#0D0D0D" opacity="1.000000" stroke="none" 
	d="
M22.015932,13.820923 
	C27.196810,11.878998 32.286682,9.628569 37.579819,8.067212 
	C45.586327,5.705474 53.734417,3.823709 61.911171,1.368995 
	C67.688042,1.000000 73.376083,1.000000 79.532059,0.999999 
	C79.526634,1.616807 79.142143,2.667542 78.566589,2.785427 
	C69.735115,4.594296 60.840179,6.107430 52.041115,8.055662 
	C45.697384,9.460249 39.473583,11.406486 32.647850,13.529734 
	C28.738247,13.905866 25.377089,13.863395 22.015932,13.820923 
z"/>
<path fill="#090909" opacity="1.000000" stroke="none" 
	d="
M23.024282,22.003571 
	C15.953548,23.328331 8.882814,24.653088 1.406040,25.988922 
	C1.000000,23.629442 1.000000,21.258884 1.000000,18.444164 
	C5.256844,17.011129 9.513686,16.022257 14.340284,15.393770 
	C17.556791,16.066238 20.203545,16.378325 23.258175,16.738503 
	C23.178158,18.539719 23.101221,20.271645 23.024282,22.003571 
z"/>
<path fill="#2D2D2D" opacity="1.000000" stroke="none" 
	d="
M1.000000,36.444164 
	C8.066772,34.667423 15.133542,33.334846 22.723030,32.415234 
	C23.286524,34.813999 23.327303,36.799797 22.933914,38.842247 
	C15.333164,40.599270 8.166582,42.299633 1.000000,44.000000 
	C1.000000,41.629444 1.000000,39.258884 1.000000,36.444164 
z"/>
<path fill="#292929" opacity="1.000000" stroke="none" 
	d="
M276.565369,22.155191 
	C290.133789,16.466644 303.702209,10.778098 317.635315,5.044776 
	C318.000000,5.750000 318.000000,6.500000 317.629333,7.630620 
	C309.960297,11.472057 302.649506,14.907299 295.384491,18.436821 
	C294.723389,18.757996 294.356354,19.684555 293.427002,20.305771 
	C285.487457,19.609896 283.955994,20.458862 282.613617,26.039890 
	C281.699951,26.404802 280.786255,26.769714 279.489136,27.129953 
	C278.258881,25.468584 277.412109,23.811888 276.565369,22.155191 
z"/>
<path fill="#0D0D0D" opacity="1.000000" stroke="none" 
	d="
M205.005493,45.007477 
	C203.868774,45.671379 202.803528,46.701553 201.583694,46.939610 
	C193.799179,48.458817 185.978409,49.791599 178.180023,51.241955 
	C177.795502,51.313469 177.508606,51.909908 177.088135,52.630959 
	C176.250000,53.000000 175.500000,53.000000 174.331543,52.690624 
	C173.275391,51.587757 172.637695,50.794262 172.127853,49.709198 
	C172.508118,48.619083 172.760544,47.820538 173.449615,47.018776 
	C175.924377,47.011154 177.962509,47.006741 180.201874,47.219566 
	C180.938873,46.635700 181.474625,45.834599 182.342224,45.027061 
	C183.116516,45.023849 183.558990,45.027073 184.058990,45.352997 
	C185.078384,45.460583 186.040237,45.245472 187.460541,45.024422 
	C192.612335,44.680641 197.305664,44.342804 202.216370,44.255226 
	C203.291000,44.672813 204.148239,44.840145 205.005493,45.007477 
z"/>
<path fill="#131313" opacity="1.000000" stroke="none" 
	d="
M293.852783,20.329992 
	C294.356354,19.684555 294.723389,18.757996 295.384491,18.436821 
	C302.649506,14.907299 309.960297,11.472057 317.629333,8.005620 
	C318.000000,9.388889 318.000000,10.777778 318.000000,12.583335 
	C314.057739,14.502582 310.118439,16.012970 306.172272,17.505249 
	C303.035919,18.691299 299.891174,19.855206 296.057526,21.019951 
	C294.860870,20.783970 294.356812,20.556982 293.852783,20.329992 
z"/>
<path fill="#161616" opacity="1.000000" stroke="none" 
	d="
M1.000000,44.250000 
	C8.166582,42.299633 15.333164,40.599270 23.260712,38.881725 
	C24.753817,38.587498 25.485954,38.310444 26.594406,38.017014 
	C29.943266,37.339962 32.915813,36.679291 36.013786,36.298721 
	C36.607388,36.959297 37.075562,37.339775 37.543736,37.720253 
	C30.943720,39.149578 24.354568,40.631756 17.740240,41.991451 
	C12.476229,43.073559 7.181466,44.006058 1.450177,45.002487 
	C1.000000,45.000000 1.000000,44.500000 1.000000,44.250000 
z"/>
<path fill="#1F1F1F" opacity="1.000000" stroke="none" 
	d="
M16.528801,1.000000 
	C14.888623,2.200260 12.882949,3.678901 10.639305,4.530818 
	C7.788750,5.613183 4.745235,6.187363 1.392459,6.990328 
	C1.000000,5.041153 1.000000,3.082306 1.000000,1.000000 
	C6.018768,1.000000 11.038186,1.000000 16.528801,1.000000 
z"/>
<path fill="#0D0D0D" opacity="1.000000" stroke="none" 
	d="
M167.000000,53.000000 
	C161.645065,53.000000 156.290146,53.000000 150.467743,52.624821 
	C149.999771,51.499283 149.999283,50.748924 149.994690,49.995399 
	C149.990570,49.992229 149.985214,49.979961 150.438629,49.989754 
	C154.927887,49.325760 158.963745,48.651978 163.331345,47.976391 
	C164.105362,47.967869 164.547638,47.961151 165.202148,48.213524 
	C166.275558,48.641335 167.136703,48.810051 167.998718,49.233849 
	C167.999710,49.658981 167.999863,49.829033 167.871613,50.292126 
	C167.495483,51.390110 167.247742,52.195053 167.000000,53.000000 
z"/>
<path fill="#1B1B1B" opacity="1.000000" stroke="none" 
	d="
M120.037399,50.029133 
	C123.384964,50.016914 126.732529,50.004696 130.954956,49.994148 
	C133.223511,50.003838 134.617203,50.011856 136.008957,50.392387 
	C136.004669,51.509937 136.002335,52.254967 136.000000,53.000000 
	C130.977905,53.000000 125.955818,53.000000 120.464706,52.628246 
	C120.009598,51.514038 120.023499,50.771587 120.037399,50.029133 
z"/>
<path fill="#131313" opacity="1.000000" stroke="none" 
	d="
M136.464645,53.000000 
	C136.002335,52.254967 136.004669,51.509937 136.461136,50.386642 
	C139.935669,49.998844 142.956085,49.989304 146.318420,49.986744 
	C147.116333,49.987354 147.572357,49.980984 148.356812,49.975220 
	C149.123093,49.983406 149.560944,49.990986 149.998779,49.998566 
	C149.999283,50.748924 149.999771,51.499283 150.000137,52.624821 
	C145.643097,53.000000 141.286194,53.000000 136.464645,53.000000 
z"/>
<path fill="#1B1B1B" opacity="1.000000" stroke="none" 
	d="
M307.482971,53.000004 
	C310.402710,51.332146 313.805420,49.664288 317.604065,47.998215 
	C318.000000,49.616570 318.000000,51.233135 318.000000,53.000000 
	C314.656128,53.000000 311.311005,53.000000 307.482971,53.000004 
z"/>
<path fill="#292929" opacity="1.000000" stroke="none" 
	d="
M119.611404,50.021008 
	C120.023499,50.771587 120.009598,51.514038 119.997849,52.628246 
	C116.307091,53.000000 112.614182,53.000000 108.460632,53.000000 
	C111.728470,52.004295 115.456947,51.008591 119.611404,50.021008 
z"/>
<path fill="#090909" opacity="1.000000" stroke="none" 
	d="
M167.437500,53.000000 
	C167.247742,52.195053 167.495483,51.390110 168.271606,50.292412 
	C169.866653,50.000027 170.933334,50.000397 172.000000,50.000763 
	C172.637695,50.794262 173.275391,51.587757 173.956543,52.690624 
	C171.958328,53.000000 169.916672,53.000000 167.437500,53.000000 
z"/>
<path fill="#252525" opacity="1.000000" stroke="none" 
	d="
M177.666672,0.999999 
	C177.233444,1.661794 176.466888,2.323590 175.350159,2.993044 
	C175.259125,2.505079 175.518234,2.009456 175.888672,1.256916 
	C176.444443,1.000000 176.888901,1.000000 177.666672,0.999999 
z"/>
<path fill="#2D2D2D" opacity="1.000000" stroke="none" 
	d="
M282.250000,53.000000 
	C282.270813,52.898788 282.541595,52.797581 282.906189,52.848186 
	C283.000000,53.000000 282.500000,53.000000 282.250000,53.000000 
z"/>
<path fill="#2E2E2E" opacity="1.000000" stroke="none" 
	d="
M64.250000,53.000000 
	C64.271431,52.897099 64.542862,52.794189 64.907143,52.845642 
	C65.000000,53.000000 64.500000,53.000000 64.250000,53.000000 
z"/>
<path fill="#E4E4E4" opacity="1.000000" stroke="none" 
	d="
M246.022949,17.592295 
	C246.055710,20.030022 246.016464,22.072754 245.963837,24.973536 
	C246.009323,27.560934 246.068192,29.290283 246.056259,31.415972 
	C246.036285,32.879562 246.087082,33.946812 246.059128,35.398396 
	C245.911163,36.825397 245.841949,37.868069 245.772736,38.910736 
	C245.166611,38.898453 244.560516,38.886173 243.600250,38.456917 
	C242.895920,37.639679 242.474487,36.849335 242.206421,36.898315 
	C238.813339,37.518303 235.442352,38.259113 231.915527,38.636383 
	C230.312241,36.767242 228.859131,35.230820 227.372131,33.384239 
	C227.137741,32.042782 226.937241,31.011486 226.806335,29.602449 
	C227.548721,27.135368 228.221558,25.046022 228.894379,22.956676 
	C233.172806,19.375965 237.706085,18.938639 242.726746,22.322702 
	C243.054718,18.738474 243.342682,15.591438 243.630646,12.444403 
	C244.216171,12.444526 244.801697,12.444648 245.387207,12.444771 
	C245.575119,14.028948 245.763031,15.613125 246.022949,17.592295 
M229.706863,29.773005 
	C230.102997,34.032921 231.883865,37.168411 236.677338,36.778576 
	C241.435806,36.391582 243.407059,32.886276 242.529221,26.332945 
	C240.861786,23.190332 238.287430,21.708763 234.784149,22.593418 
	C231.582153,23.401993 229.609467,25.398590 229.706863,29.773005 
z"/>
<path fill="#EAEAEA" opacity="1.000000" stroke="none" 
	d="
M276.228943,22.036207 
	C277.412109,23.811888 278.258881,25.468584 279.263763,27.444778 
	C279.748810,32.938744 278.098755,37.130039 272.806854,38.664696 
	C266.715210,40.431290 262.828491,36.944069 259.396515,32.104530 
	C260.583557,28.693954 261.428864,24.830544 263.736145,22.300270 
	C267.185883,18.517096 271.737885,19.398634 276.228943,22.036207 
M275.963379,33.239601 
	C277.714417,29.007198 277.203949,25.274662 272.852203,23.129864 
	C269.485199,21.470402 266.241699,22.349600 264.244293,25.662600 
	C262.219513,29.020979 262.483826,32.547760 265.559998,35.089108 
	C269.067535,37.986801 272.596344,37.324352 275.963379,33.239601 
z"/>
<path fill="#E4E4E4" opacity="1.000000" stroke="none" 
	d="
M293.427002,20.305771 
	C294.356812,20.556982 294.860870,20.783970 295.648834,21.016537 
	C295.380981,21.832870 294.906036,23.255331 294.262512,23.336195 
	C292.541168,23.552507 290.705017,22.904083 288.995972,23.154764 
	C287.642517,23.353291 286.409668,24.374201 285.123291,25.029940 
	C286.265930,26.032923 287.266327,27.336996 288.587830,27.961351 
	C290.178375,28.712814 292.241577,28.543550 293.729309,29.409784 
	C295.124817,30.222324 296.905487,31.842794 296.939606,33.148960 
	C296.981537,34.751808 295.785767,37.186642 294.423218,37.877495 
	C290.239441,39.998722 285.989441,39.578247 282.479065,35.404362 
	C283.507690,35.589626 284.537811,35.767082 285.564575,35.962029 
	C287.022736,36.238873 288.603973,37.021404 289.903961,36.690228 
	C291.594788,36.259491 293.061371,34.948387 294.624451,34.016174 
	C293.306152,33.014854 292.065308,31.883860 290.652679,31.040560 
	C288.106354,29.520485 285.457275,28.172617 282.732361,26.396351 
	C283.955994,20.458862 285.487457,19.609896 293.427002,20.305771 
z"/>
<path fill="#0D0D0D" opacity="1.000000" stroke="none" 
	d="
M232.065720,38.969109 
	C235.442352,38.259113 238.813339,37.518303 242.206421,36.898315 
	C242.474487,36.849335 242.895920,37.639679 243.295746,38.447884 
	C234.639664,40.903774 225.963867,43.095093 217.212204,44.923241 
	C214.077774,45.577995 210.760147,45.355728 207.390503,44.976982 
	C207.507843,43.620960 207.760803,42.821705 208.461945,42.017525 
	C211.604706,42.006283 214.299271,41.999962 217.344025,41.988842 
	C218.466125,41.328457 219.238083,40.672867 220.463623,40.014465 
	C224.633377,39.664135 228.349548,39.316620 232.065720,38.969109 
z"/>
<path fill="#FAFAFA" opacity="1.000000" stroke="none" 
	d="
M252.666946,23.958530 
	C253.351166,22.763506 254.035370,21.568481 254.921646,20.680689 
	C255.691360,24.428795 256.259033,27.869667 256.999023,31.670454 
	C256.445190,33.863525 255.809814,35.741631 254.938370,37.502918 
	C254.670944,38.043411 253.757080,38.264053 252.998276,37.951126 
	C252.800262,36.523163 252.743225,35.775246 252.781555,34.635376 
	C252.818268,33.173676 252.759598,32.103928 252.795105,30.599461 
	C252.815155,28.096006 252.741058,26.027269 252.666946,23.958530 
z"/>
<path fill="#0D0D0D" opacity="1.000000" stroke="none" 
	d="
M252.686188,35.027325 
	C252.743225,35.775246 252.800262,36.523163 252.780487,37.640160 
	C250.656799,38.320744 248.609955,38.632252 246.167908,38.927246 
	C245.841949,37.868069 245.911163,36.825397 246.471130,35.394737 
	C248.869965,35.013603 250.778076,35.020466 252.686188,35.027325 
z"/>
<path fill="#131313" opacity="1.000000" stroke="none" 
	d="
M208.013763,42.022446 
	C207.760803,42.821705 207.507843,43.620960 207.127167,44.711861 
	C206.556305,45.003716 206.113159,45.003925 205.337753,45.005806 
	C204.148239,44.840145 203.291000,44.672813 202.451630,43.992859 
	C204.317581,42.994301 206.165680,42.508373 208.013763,42.022446 
z"/>
<path fill="#E4E4E4" opacity="1.000000" stroke="none" 
	d="
M218.898865,23.979757 
	C219.287201,22.713217 219.675537,21.446676 220.063873,20.180136 
	C220.673294,20.870760 221.282700,21.561386 221.882950,23.058586 
	C221.947800,26.240753 222.021790,28.616348 222.003693,31.403816 
	C221.973938,33.215202 222.036255,34.614712 222.016052,36.383156 
	C221.056213,37.249142 220.223969,37.935215 219.281693,38.159878 
	C218.840652,38.265030 218.136398,37.093517 217.638107,37.159103 
	C214.177078,37.614647 210.738846,38.243256 207.296692,38.481724 
	C206.911758,37.667522 206.523438,37.187943 206.072510,36.411011 
	C205.619308,35.404629 205.228683,34.695599 204.857574,33.544518 
	C204.746307,31.045866 204.615524,28.989262 204.484741,26.932655 
	C204.715851,24.645084 204.946960,22.357513 205.178070,20.069942 
	C205.656372,20.044859 206.134659,20.019775 206.612961,19.994692 
	C206.829453,21.689720 207.045959,23.384748 207.253967,25.924084 
	C207.238785,27.933237 207.202682,29.098799 207.230927,30.262798 
	C207.318192,33.860710 208.717667,36.515656 212.679626,36.646259 
	C216.774002,36.781227 218.647949,34.204746 218.979095,30.450588 
	C219.167679,28.312639 218.939407,26.137920 218.898865,23.979757 
z"/>
<path fill="#292929" opacity="1.000000" stroke="none" 
	d="
M218.512833,24.057180 
	C218.939407,26.137920 219.167679,28.312639 218.979095,30.450588 
	C218.647949,34.204746 216.774002,36.781227 212.679626,36.646259 
	C208.717667,36.515656 207.318192,33.860710 207.230927,30.262798 
	C207.202682,29.098799 207.238785,27.933237 207.336105,26.348974 
	C210.993423,25.331240 214.560120,24.732922 218.512833,24.057180 
z"/>
<path fill="#F1F1F1" opacity="1.000000" stroke="none" 
	d="
M190.766968,28.967102 
	C190.866196,25.989166 192.451004,22.454657 187.732407,21.486328 
	C189.610138,19.609888 191.283844,17.937340 193.325684,16.428509 
	C192.088547,22.083311 197.677048,18.950586 199.804642,21.573557 
	C197.267487,22.042419 195.419601,22.383907 193.054657,22.820946 
	C193.054657,24.238665 193.054657,25.664867 193.050385,27.941433 
	C193.693649,31.208094 194.341187,33.624393 195.192612,36.305012 
	C196.954803,37.054279 198.513107,37.539227 199.712677,38.186691 
	C197.298447,38.390862 195.242966,38.432518 193.054565,38.281246 
	C192.465286,37.674110 192.008926,37.259903 191.415329,36.426819 
	C191.107712,33.660995 190.937332,31.314049 190.766968,28.967102 
z"/>
<path fill="#212121" opacity="1.000000" stroke="none" 
	d="
M194.988739,36.040688 
	C194.341187,33.624393 193.693649,31.208094 193.124084,28.382345 
	C196.687866,27.624224 200.173645,27.275553 204.072083,26.929768 
	C204.615524,28.989262 204.746307,31.045866 204.438736,33.548153 
	C200.996506,34.676117 197.992630,35.358402 194.988739,36.040688 
z"/>
<path fill="#242424" opacity="1.000000" stroke="none" 
	d="
M222.095795,30.991941 
	C222.021790,28.616348 221.947800,26.240753 221.963623,23.427765 
	C224.048889,22.975668 226.044327,22.960964 228.467072,22.951469 
	C228.221558,25.046022 227.548721,27.135368 226.463623,29.612522 
	C224.732834,30.330870 223.414307,30.661406 222.095795,30.991941 
z"/>
<path fill="#E4E4E4" opacity="1.000000" stroke="none" 
	d="
M58.038727,43.284542 
	C59.670040,43.020969 61.584839,42.766171 63.362614,43.148506 
	C70.017746,44.579800 73.018272,42.337799 72.711174,35.916546 
	C66.673096,39.618690 59.665768,38.920940 56.312977,31.675724 
	C56.357529,28.764271 56.761456,26.414436 57.165386,24.064600 
	C60.821507,20.352198 64.957054,18.658319 70.590576,21.290295 
	C71.603027,21.927509 72.076920,22.278267 72.758713,22.782904 
	C72.827988,22.093683 72.882965,21.546707 72.937943,20.999733 
	C73.835030,20.833429 74.732117,20.667128 75.739960,21.190411 
	C75.908661,24.255724 75.966606,26.631451 75.953781,29.458036 
	C75.736366,33.233318 75.589722,36.557743 75.443085,39.882168 
	C72.325409,46.620796 66.428421,47.891785 58.038727,43.284542 
M59.220470,29.759346 
	C60.016644,34.274208 62.889656,36.368710 67.245384,35.758739 
	C71.467461,35.167484 73.251518,32.255093 72.899315,27.310505 
	C71.674980,23.611395 68.915291,21.985266 65.257378,22.430349 
	C61.595119,22.875959 59.250816,25.001797 59.220470,29.759346 
z"/>
<path fill="#F1F1F1" opacity="1.000000" stroke="none" 
	d="
M101.060844,38.837952 
	C100.687759,38.536648 100.314674,38.235344 99.527283,37.557022 
	C98.528374,34.878838 98.033363,32.549755 97.328064,30.286200 
	C96.848427,28.746843 96.074181,27.299282 95.400314,25.438450 
	C94.403473,22.931870 92.993073,20.739971 96.724144,19.677719 
	C97.054565,19.583647 96.940857,17.929607 97.033432,17.000095 
	C98.848816,16.532883 100.664215,16.065670 102.763992,15.797377 
	C103.048378,17.146864 103.048378,18.297430 103.048378,18.429615 
	C105.126534,20.206392 106.603058,21.468794 108.306854,23.257307 
	C106.796303,24.402100 105.058487,25.020779 103.013977,25.748646 
	C103.981384,29.005604 99.919334,34.814289 107.819717,34.972416 
	C108.234543,34.980721 108.623268,36.292412 108.914192,37.370564 
	C106.223106,38.108524 103.641975,38.473236 101.060844,38.837952 
z"/>
<path fill="#F1F1F1" opacity="1.000000" stroke="none" 
	d="
M92.858444,38.956745 
	C90.920799,38.945068 88.983154,38.933392 86.417145,38.636185 
	C81.733902,36.329597 82.685593,32.348278 82.249794,28.648582 
	C81.966484,27.046646 81.498886,25.772932 81.139809,24.469328 
	C80.735939,23.003101 80.429947,21.509914 80.081375,20.028456 
	C81.185692,18.837891 82.290016,17.647324 84.271873,15.510680 
	C84.843674,15.776215 86.434036,16.514759 88.041428,18.021339 
	C89.597610,19.464867 91.136772,20.140362 93.076805,20.991787 
	C92.706360,22.225828 92.318680,23.517281 91.565948,24.723013 
	C90.464882,24.724447 89.728874,24.811600 88.688004,24.876455 
	C88.322495,25.234676 88.261841,25.615198 88.127609,26.425213 
	C88.688896,29.991833 85.510262,35.363747 92.646301,34.691036 
	C92.717018,36.112938 92.787735,37.534843 92.858444,38.956745 
z"/>
<path fill="#EAEAEA" opacity="1.000000" stroke="none" 
	d="
M37.892937,37.856464 
	C37.075562,37.339775 36.607388,36.959297 36.080360,35.908672 
	C36.337261,33.488373 36.653023,31.738222 36.968781,29.988071 
	C40.759464,29.120525 44.550148,28.252977 48.433949,27.364117 
	C48.336906,22.086672 46.832092,21.532364 37.150948,23.645945 
	C36.970409,23.255182 36.789875,22.864418 36.609337,22.473656 
	C38.711094,21.663055 40.754372,20.449368 42.927979,20.134027 
	C46.399693,19.630362 49.525845,20.546589 51.038689,25.088917 
	C51.114017,28.603125 51.150269,31.315842 51.186520,34.028557 
	C51.044418,35.624954 50.902317,37.221355 50.833656,37.992676 
	C46.400486,37.992676 42.321312,37.992676 37.892937,37.856464 
M46.292637,31.061958 
	C43.476768,31.601309 40.660904,32.140659 37.044659,32.833317 
	C39.986332,37.259575 42.795982,37.712914 46.040169,36.280823 
	C48.638737,35.133736 48.598007,33.230255 46.292637,31.061958 
z"/>
<path fill="#EAEAEA" opacity="1.000000" stroke="none" 
	d="
M26.218092,38.033394 
	C25.485954,38.310444 24.753817,38.587498 23.694881,38.825073 
	C23.327303,36.799797 23.286524,34.813999 23.133934,32.415150 
	C23.102083,28.963366 23.182043,25.924631 23.143143,22.444735 
	C23.101221,20.271645 23.178158,18.539719 23.258175,16.738503 
	C20.203545,16.378325 17.556791,16.066238 14.725222,15.385962 
	C16.742916,14.668435 18.945427,14.319099 21.581936,13.895344 
	C25.377089,13.863395 28.738247,13.905866 32.552723,13.876265 
	C33.617809,14.213999 34.229576,14.623804 34.841343,15.033609 
	C34.413982,15.434558 34.017097,16.135290 33.553764,16.182394 
	C31.913157,16.349182 30.112137,15.913296 28.641119,16.447342 
	C27.571539,16.835648 26.926716,18.393932 26.157812,19.934368 
	C26.182446,23.663767 26.141777,26.889374 26.101135,30.984547 
	C26.140139,33.913872 26.179115,35.973633 26.218092,38.033394 
z"/>
<path fill="#303030" opacity="1.000000" stroke="none" 
	d="
M26.594406,38.017014 
	C26.179115,35.973633 26.140139,33.913872 26.173101,31.417950 
	C29.539400,30.648233 32.833759,30.314680 36.548447,29.984600 
	C36.653023,31.738222 36.337261,33.488373 35.954933,35.628574 
	C32.915813,36.679291 29.943266,37.339962 26.594406,38.017014 
z"/>
<path fill="#292929" opacity="1.000000" stroke="none" 
	d="
M51.531563,34.007721 
	C51.150269,31.315842 51.114017,28.603125 51.138218,25.442074 
	C52.929691,24.673809 54.660713,24.353882 56.778564,24.049278 
	C56.761456,26.414436 56.357529,28.764271 55.985035,31.530075 
	C54.636513,32.626328 53.256557,33.306610 51.531563,34.007721 
z"/>
<path fill="#363636" opacity="1.000000" stroke="none" 
	d="
M79.737350,20.115576 
	C80.429947,21.509914 80.735939,23.003101 81.139809,24.469328 
	C81.498886,25.772932 81.966484,27.046646 81.814697,28.630068 
	C79.503654,28.953445 77.764107,28.980312 76.024551,29.007177 
	C75.966606,26.631451 75.908661,24.255724 75.925941,21.439922 
	C77.131882,20.734129 78.262604,20.468412 79.737350,20.115576 
z"/>
<path fill="#252525" opacity="1.000000" stroke="none" 
	d="
M91.931000,24.808733 
	C92.318680,23.517281 92.706360,22.225828 93.076805,20.991787 
	C91.136772,20.140362 89.597610,19.464867 88.119949,18.393978 
	C90.858727,17.666668 93.536011,17.334749 96.623360,17.001461 
	C96.940857,17.929607 97.054565,19.583647 96.724144,19.677719 
	C92.993073,20.739971 94.403473,22.931870 95.011108,25.506731 
	C93.745850,25.567736 92.838425,25.188234 91.931000,24.808733 
z"/>
<path fill="#252525" opacity="1.000000" stroke="none" 
	d="
M126.785568,11.756395 
	C125.887924,12.644568 124.773781,13.284830 123.329544,13.956102 
	C124.189316,13.160904 125.379189,12.334694 126.785568,11.756395 
z"/>
<path fill="#252525" opacity="1.000000" stroke="none" 
	d="
M72.588425,21.004002 
	C72.882965,21.546707 72.827988,22.093683 72.758713,22.782904 
	C72.076920,22.278267 71.603027,21.927509 70.985458,21.318604 
	C71.307495,21.043060 71.773201,21.025665 72.588425,21.004002 
z"/>
<path fill="#F3F3F3" opacity="1.000000" stroke="none" 
	d="
M110.248238,23.070705 
	C111.271797,22.739859 112.486664,22.656109 113.286758,22.036642 
	C117.394951,18.855921 121.644531,18.779276 126.655441,21.503193 
	C128.391312,24.664690 129.582794,27.422390 131.149750,31.049160 
	C125.092484,31.049160 120.695107,31.049160 115.553558,31.049160 
	C117.826111,34.560181 120.280136,35.067772 123.511909,34.377140 
	C124.951683,34.069454 126.597725,34.727009 128.229553,35.293755 
	C127.854073,36.418163 127.399170,37.195286 126.544037,38.033310 
	C121.651337,40.011856 117.414360,39.161007 113.144165,36.576462 
	C109.241753,32.439449 110.218552,27.656809 110.248238,23.070705 
M116.043404,26.727514 
	C118.853249,27.223051 121.663101,27.718588 124.964325,28.300781 
	C122.630585,22.968256 120.409943,22.565187 116.043404,26.727514 
z"/>
<path fill="#FAFAFA" opacity="1.000000" stroke="none" 
	d="
M147.278366,19.677122 
	C148.307419,19.875984 148.938004,20.117895 150.086975,20.699503 
	C151.638245,24.670439 152.671143,28.301678 153.562546,32.368847 
	C153.421051,34.719177 153.421051,36.633583 153.421051,38.634789 
	C151.267853,38.634789 149.714691,38.634789 148.150635,38.634789 
	C148.007782,36.894035 147.887573,35.429260 147.844620,33.540344 
	C147.922256,31.631430 148.388168,29.923965 147.810242,28.715820 
	C147.010086,27.043077 145.424698,25.745951 144.175537,24.287983 
	C142.659164,25.703379 140.647919,26.872181 139.781281,28.611347 
	C139.074081,30.030582 139.734589,32.131355 139.647263,34.356544 
	C139.399460,36.047012 139.293091,37.310886 139.179565,38.659615 
	C137.298187,38.659615 135.729401,38.659615 134.160324,38.659615 
	C134.028183,37.265812 133.919739,36.121864 133.890015,34.519104 
	C133.985886,29.375319 134.003067,24.690342 134.020233,20.005365 
	C138.306793,19.910299 142.593353,19.815235 147.278366,19.677122 
z"/>
<path fill="#131313" opacity="1.000000" stroke="none" 
	d="
M133.587875,20.008644 
	C134.003067,24.690342 133.985886,29.375319 133.485886,34.531628 
	C131.385422,34.984131 129.767776,34.965298 128.150146,34.946468 
	C126.597725,34.727009 124.951683,34.069454 123.511909,34.377140 
	C120.280136,35.067772 117.826111,34.560181 115.553558,31.049160 
	C120.695107,31.049160 125.092484,31.049160 131.149750,31.049160 
	C129.582794,27.422390 128.391312,24.664690 127.015762,21.603035 
	C128.939636,20.870026 131.047577,20.440975 133.587875,20.008644 
z"/>
<path fill="#131313" opacity="1.000000" stroke="none" 
	d="
M109.878250,23.064331 
	C110.218552,27.656809 109.241753,32.439449 112.716393,36.601486 
	C111.308754,36.972221 110.166451,36.984768 109.024147,36.997314 
	C108.623268,36.292412 108.234543,34.980721 107.819717,34.972416 
	C99.919334,34.814289 103.981384,29.005604 103.013977,25.748646 
	C105.058487,25.020779 106.796303,24.402100 108.651161,23.423752 
	C109.014893,23.062042 109.261581,23.060001 109.878250,23.064331 
z"/>
<path fill="#242424" opacity="1.000000" stroke="none" 
	d="
M108.914192,37.370564 
	C110.166451,36.984768 111.308754,36.972221 112.878830,36.934654 
	C117.414360,39.161007 121.651337,40.011856 126.811409,38.233818 
	C128.990097,40.251633 130.501160,42.129837 132.012222,44.008041 
	C128.486252,44.639557 124.983116,45.487915 121.430046,45.862118 
	C110.581520,47.004646 99.713768,47.964668 88.425171,48.992371 
	C91.507408,46.655853 95.041405,44.356709 98.512924,41.966812 
	C99.441704,41.327412 100.179733,40.410912 101.033081,39.229782 
	C103.641975,38.473236 106.223106,38.108524 108.914192,37.370564 
z"/>
<path fill="#131313" opacity="1.000000" stroke="none" 
	d="
M91.565948,24.723013 
	C92.838425,25.188234 93.745850,25.567736 95.042473,25.878956 
	C96.074181,27.299282 96.848427,28.746843 97.328064,30.286200 
	C98.033363,32.549755 98.528374,34.878838 99.279282,37.526291 
	C97.528114,38.222260 95.610634,38.571938 93.275795,38.939178 
	C92.787735,37.534843 92.717018,36.112938 92.646301,34.691036 
	C85.510262,35.363747 88.688896,29.991833 88.316498,26.287239 
	C88.819046,25.497585 88.957016,25.223913 88.992867,24.898754 
	C89.728874,24.811600 90.464882,24.724447 91.565948,24.723013 
z"/>
<path fill="#0D0D0D" opacity="1.000000" stroke="none" 
	d="
M75.953781,29.458036 
	C77.764107,28.980312 79.503654,28.953445 81.678314,28.945095 
	C82.685593,32.348278 81.733902,36.329597 86.001282,38.637398 
	C82.943871,39.263710 79.673950,39.603275 75.923561,39.912506 
	C75.589722,36.557743 75.736366,33.233318 75.953781,29.458036 
z"/>
<path fill="#242424" opacity="1.000000" stroke="none" 
	d="
M83.792068,48.756325 
	C83.222054,49.326996 82.444962,49.657055 81.331779,49.985825 
	C81.858795,49.494930 82.721893,49.005318 83.792068,48.756325 
z"/>
<path fill="#292929" opacity="1.000000" stroke="none" 
	d="
M132.459198,44.006245 
	C130.501160,42.129837 128.990097,40.251633 127.211655,38.172920 
	C127.399170,37.195286 127.854073,36.418163 128.229553,35.293755 
	C129.767776,34.965298 131.385422,34.984131 133.407166,34.990440 
	C133.919739,36.121864 134.028183,37.265812 134.160324,38.659615 
	C135.729401,38.659615 137.298187,38.659615 139.179565,38.659615 
	C139.293091,37.310886 139.399460,36.047012 140.036484,34.386147 
	C142.967209,33.980927 145.367279,33.972706 147.767365,33.964485 
	C147.887573,35.429260 148.007782,36.894035 148.150635,38.634789 
	C149.714691,38.634789 151.267853,38.634789 153.421051,38.634789 
	C153.421051,36.633583 153.421051,34.719177 153.978027,32.408379 
	C156.665771,32.016571 158.850006,32.327812 160.917084,31.967318 
	C166.741104,30.951626 172.516953,29.659830 178.703171,28.548811 
	C180.246475,30.175039 181.398407,31.729328 182.550339,33.283615 
	C180.890915,34.446018 179.329956,36.349171 177.547531,36.586071 
	C175.243912,36.892235 172.753738,35.911854 170.363754,35.393871 
	C169.393112,35.183510 168.474731,34.732121 166.981995,34.190712 
	C169.584686,38.886444 174.793945,40.364914 180.226624,38.556316 
	C185.001923,36.966564 185.995392,33.590912 184.746231,29.127163 
	C186.467072,29.076778 188.187897,29.026394 190.337860,28.971556 
	C190.937332,31.314049 191.107712,33.660995 191.034119,36.495464 
	C190.409348,37.782082 190.028564,38.581173 189.647781,39.380264 
	C190.827682,39.078232 192.007584,38.776199 193.187485,38.474171 
	C195.242966,38.432518 197.298447,38.390862 200.126724,38.183292 
	C202.644714,37.581036 204.389908,37.144699 206.135101,36.708363 
	C206.523438,37.187943 206.911758,37.667522 206.969879,38.711189 
	C205.195114,39.849800 203.796310,40.635162 202.297668,40.960434 
	C197.216278,42.063335 192.099564,43.003475 186.659668,44.007721 
	C185.549149,44.349865 184.775299,44.690079 184.001465,45.030296 
	C183.558990,45.027073 183.116516,45.023849 182.007080,45.013680 
	C180.893204,45.006191 180.446304,45.005650 179.741119,44.759605 
	C176.710632,44.677345 173.866455,44.514828 171.188766,45.106167 
	C169.018661,45.585411 167.048660,46.970901 164.989914,47.954437 
	C164.547638,47.961151 164.105362,47.967869 163.040588,47.702847 
	C157.933990,46.623165 153.629593,46.691864 149.985214,49.979961 
	C149.985214,49.979961 149.990570,49.992229 149.994675,49.995399 
	C149.560944,49.990986 149.123093,49.983406 148.304749,49.688393 
	C147.600769,49.096531 147.277328,48.792099 146.953873,48.487667 
	C146.628082,48.985035 146.302292,49.482399 145.976501,49.979767 
	C142.956085,49.989304 139.935669,49.998844 136.463074,50.014130 
	C134.617203,50.011856 133.223511,50.003838 131.411835,49.989025 
	C132.885498,48.990974 134.722595,47.868736 136.686356,47.050537 
	C138.215393,46.413471 139.902145,46.154934 141.518799,45.728172 
	C141.480194,45.153599 141.441605,44.579021 141.403015,44.004448 
	C138.570724,44.004448 135.738449,44.004448 132.459198,44.006245 
z"/>
<path fill="#E4E4E4" opacity="1.000000" stroke="none" 
	d="
M184.448959,28.955341 
	C185.995392,33.590912 185.001923,36.966564 180.226624,38.556316 
	C174.793945,40.364914 169.584686,38.886444 166.981995,34.190712 
	C168.474731,34.732121 169.393112,35.183510 170.363754,35.393871 
	C172.753738,35.911854 175.243912,36.892235 177.547531,36.586071 
	C179.329956,36.349171 180.890915,34.446018 182.550339,33.283615 
	C181.398407,31.729328 180.246475,30.175039 178.374969,28.391014 
	C167.593201,25.285099 166.897598,24.486496 167.938293,17.005201 
	C170.867264,13.051716 175.155991,14.104369 179.563538,13.929588 
	C181.446930,14.679178 182.888412,15.466809 184.329895,16.254440 
	C184.145264,16.712175 183.960632,17.169910 183.776001,17.627645 
	C182.674026,17.369682 181.583740,16.980974 180.467636,16.881201 
	C178.201309,16.678606 175.796799,16.149450 173.690231,16.691467 
	C172.289612,17.051842 170.466080,18.980604 170.381104,20.306633 
	C170.301773,21.544529 172.008881,23.405996 173.383881,24.127907 
	C176.836273,25.940495 180.545471,27.263931 184.448959,28.955341 
z"/>
<path fill="#363636" opacity="1.000000" stroke="none" 
	d="
M252.291931,23.955944 
	C252.741058,26.027269 252.815155,28.096006 252.387787,30.596111 
	C249.966568,31.024862 248.046814,31.022247 246.127045,31.019632 
	C246.068192,29.290283 246.009323,27.560934 246.035324,25.406197 
	C248.052429,24.638327 249.984665,24.295841 252.291931,23.955944 
z"/>
<path fill="#090909" opacity="1.000000" stroke="none" 
	d="
M167.522018,17.004181 
	C166.897598,24.486496 167.593201,25.285099 177.983582,28.319073 
	C172.516953,29.659830 166.741104,30.951626 160.917084,31.967318 
	C158.850006,32.327812 156.665771,32.016571 154.119537,31.972450 
	C152.671143,28.301678 151.638245,24.670439 150.335083,20.756947 
	C155.745117,19.317518 161.425430,18.160341 167.522018,17.004181 
z"/>
<path fill="#1B1B1B" opacity="1.000000" stroke="none" 
	d="
M186.996338,44.005798 
	C192.099564,43.003475 197.216278,42.063335 202.297668,40.960434 
	C203.796310,40.635162 205.195114,39.849800 206.966476,39.045815 
	C210.738846,38.243256 214.177078,37.614647 217.638107,37.159103 
	C218.136398,37.093517 218.840652,38.265030 219.281693,38.159878 
	C220.223969,37.935215 221.056213,37.249142 222.475128,36.379292 
	C224.479828,35.235794 225.942932,34.465096 227.406021,33.694401 
	C228.859131,35.230820 230.312241,36.767242 231.915527,38.636387 
	C228.349548,39.316620 224.633377,39.664135 220.112671,40.016457 
	C218.536697,40.678719 217.765274,41.336178 216.993851,41.993637 
	C214.299271,41.999962 211.604706,42.006283 208.461945,42.017525 
	C206.165680,42.508373 204.317581,42.994301 202.234253,43.742599 
	C197.305664,44.342804 192.612335,44.680641 187.457932,44.768101 
	C186.996689,44.347080 186.996506,44.176441 186.996338,44.005798 
z"/>
<path fill="#1B1B1B" opacity="1.000000" stroke="none" 
	d="
M165.202148,48.213528 
	C167.048660,46.970901 169.018661,45.585411 171.188766,45.106167 
	C173.866455,44.514828 176.710632,44.677345 179.741943,45.092396 
	C180.000870,46.114567 180.000748,46.558449 180.000626,47.002331 
	C177.962509,47.006741 175.924377,47.011154 173.055573,47.011909 
	C170.815887,47.665096 169.406876,48.321930 167.997864,48.978767 
	C167.136703,48.810051 166.275558,48.641335 165.202148,48.213528 
z"/>
<path fill="#131313" opacity="1.000000" stroke="none" 
	d="
M167.998718,49.233845 
	C169.406876,48.321930 170.815887,47.665096 172.618927,47.015121 
	C172.760544,47.820538 172.508118,48.619083 172.127853,49.709198 
	C170.933334,50.000397 169.866653,50.000027 168.399994,49.999371 
	C167.999863,49.829033 167.999710,49.658981 167.998718,49.233845 
z"/>
<path fill="#131313" opacity="1.000000" stroke="none" 
	d="
M186.659668,44.007721 
	C186.996506,44.176441 186.996689,44.347080 186.999481,44.774040 
	C186.040237,45.245472 185.078384,45.460583 184.058990,45.352997 
	C184.775299,44.690079 185.549149,44.349865 186.659668,44.007721 
z"/>
<path fill="#131313" opacity="1.000000" stroke="none" 
	d="
M180.201874,47.219566 
	C180.000748,46.558449 180.000870,46.114567 180.000198,45.337898 
	C180.446304,45.005650 180.893204,45.006191 181.675262,45.020115 
	C181.474625,45.834599 180.938873,46.635700 180.201874,47.219566 
z"/>
<path fill="#1B1B1B" opacity="1.000000" stroke="none" 
	d="
M150.438629,49.989754 
	C153.629593,46.691864 157.933990,46.623165 162.708847,47.704651 
	C158.963745,48.651978 154.927887,49.325760 150.438629,49.989754 
z"/>
<path fill="#1B1B1B" opacity="1.000000" stroke="none" 
	d="
M146.318420,49.986748 
	C146.302292,49.482399 146.628082,48.985035 146.953873,48.487667 
	C147.277328,48.792099 147.600769,49.096531 147.976288,49.687790 
	C147.572357,49.980984 147.116333,49.987354 146.318420,49.986748 
z"/>
<path fill="#2E2E2E" opacity="1.000000" stroke="none" 
	d="
M242.656204,26.995054 
	C243.407059,32.886276 241.435806,36.391582 236.677338,36.778576 
	C231.883865,37.168411 230.102997,34.032921 230.252838,29.387337 
	C234.751282,28.332798 238.703751,27.663927 242.656204,26.995054 
z"/>
<path fill="#292929" opacity="1.000000" stroke="none" 
	d="
M242.592712,26.664001 
	C238.703751,27.663927 234.751282,28.332798 230.367004,29.002335 
	C229.609467,25.398590 231.582153,23.401993 234.784149,22.593418 
	C238.287430,21.708763 240.861786,23.190332 242.592712,26.664001 
z"/>
<path fill="#1E1E1E" opacity="1.000000" stroke="none" 
	d="
M246.056274,31.415972 
	C248.046814,31.022247 249.966568,31.024862 252.293640,31.030827 
	C252.759598,32.103928 252.818268,33.173676 252.781555,34.635376 
	C250.778076,35.020466 248.869965,35.013603 246.549866,35.010403 
	C246.087082,33.946812 246.036285,32.879562 246.056274,31.415972 
z"/>
<path fill="#303030" opacity="1.000000" stroke="none" 
	d="
M227.372131,33.384239 
	C225.942932,34.465096 224.479828,35.235794 222.557648,36.010361 
	C222.036255,34.614712 221.973938,33.215202 222.003693,31.403816 
	C223.414307,30.661406 224.732834,30.330870 226.394043,29.990259 
	C226.937241,31.011486 227.137741,32.042782 227.372131,33.384239 
z"/>
<path fill="#1F1F1F" opacity="1.000000" stroke="none" 
	d="
M275.776489,33.577858 
	C272.596344,37.324352 269.067535,37.986801 265.559998,35.089108 
	C262.483826,32.547760 262.219513,29.020979 264.244293,25.662600 
	C266.241699,22.349600 269.485199,21.470402 272.852203,23.129864 
	C277.203949,25.274662 277.714417,29.007198 275.776489,33.577858 
z"/>
<path fill="#131313" opacity="1.000000" stroke="none" 
	d="
M217.344025,41.988838 
	C217.765274,41.336178 218.536697,40.678719 219.659073,40.019272 
	C219.238083,40.672867 218.466125,41.328457 217.344025,41.988838 
z"/>
<path fill="#303030" opacity="1.000000" stroke="none" 
	d="
M206.072510,36.411011 
	C204.389908,37.144699 202.644714,37.581036 200.485474,38.020775 
	C198.513107,37.539227 196.954803,37.054279 195.192627,36.305008 
	C197.992630,35.358402 200.996506,34.676117 204.419220,33.990200 
	C205.228683,34.695599 205.619308,35.404629 206.072510,36.411011 
z"/>
<path fill="#303030" opacity="1.000000" stroke="none" 
	d="
M193.054565,38.281242 
	C192.007584,38.776199 190.827682,39.078232 189.647781,39.380264 
	C190.028564,38.581173 190.409348,37.782082 191.171356,36.914341 
	C192.008926,37.259903 192.465286,37.674110 193.054565,38.281242 
z"/>
<path fill="#1E1E1E" opacity="1.000000" stroke="none" 
	d="
M72.832924,28.025373 
	C73.251518,32.255093 71.467461,35.167484 67.245384,35.758739 
	C62.889656,36.368710 60.016644,34.274208 59.688263,29.401058 
	C64.381683,28.703638 68.607300,28.364506 72.832924,28.025373 
z"/>
<path fill="#363636" opacity="1.000000" stroke="none" 
	d="
M72.866119,27.667938 
	C68.607300,28.364506 64.381683,28.703638 59.740532,29.044224 
	C59.250816,25.001797 61.595119,22.875959 65.257378,22.430349 
	C68.915291,21.985266 71.674980,23.611395 72.866119,27.667938 
z"/>
<path fill="#252525" opacity="1.000000" stroke="none" 
	d="
M88.688004,24.876455 
	C88.957016,25.223913 88.819046,25.497585 88.390076,25.857746 
	C88.261841,25.615198 88.322495,25.234676 88.688004,24.876455 
z"/>
<path fill="#292929" opacity="1.000000" stroke="none" 
	d="
M46.720963,31.089233 
	C48.598007,33.230255 48.638737,35.133736 46.040169,36.280823 
	C42.795982,37.712914 39.986332,37.259575 37.044659,32.833317 
	C40.660904,32.140659 43.476768,31.601309 46.720963,31.089233 
z"/>
<path fill="#2E2E2E" opacity="1.000000" stroke="none" 
	d="
M116.143204,26.323448 
	C120.409943,22.565187 122.630585,22.968256 124.964325,28.300781 
	C121.663101,27.718588 118.853249,27.223051 116.143204,26.323448 
z"/>
<path fill="#090909" opacity="1.000000" stroke="none" 
	d="
M147.844620,33.540344 
	C145.367279,33.972706 142.967209,33.980927 140.177902,33.959549 
	C139.734589,32.131355 139.074081,30.030582 139.781281,28.611347 
	C140.647919,26.872181 142.659164,25.703379 144.175537,24.287983 
	C145.424698,25.745951 147.010086,27.043077 147.810242,28.715820 
	C148.388168,29.923965 147.922256,31.631430 147.844620,33.540344 
z"/>
</svg>